<svg id="Layer_1" data-name="Layer 1" xmlns="http://www.w3.org/2000/svg" viewBox="0 0 526.9 703.02"><defs><style>.cls-1,.cls-6{fill:#aadae2;}.cls-2,.cls-9{fill:#3eaa9f;}.cls-3,.cls-8{fill:#87cdd6;}.cls-4{fill:#335c63;}.cls-11,.cls-5{fill:none;}.cls-10,.cls-11,.cls-12,.cls-5,.cls-6,.cls-7,.cls-8,.cls-9{stroke:#000;stroke-miterlimit:10;}.cls-10,.cls-6,.cls-7,.cls-8,.cls-9{stroke-width:4px;}.cls-7{fill:#023133;}.cls-10{fill:#339c95;}.cls-11{stroke-width:3px;}.cls-12{fill:#68b42e;stroke-width:2px;}</style></defs><g id="Layer_2" data-name="Layer 2"><g id="Layer_1-2" data-name="Layer 1-2"><g id="Layer_2-2" data-name="Layer 2-2"><path class="cls-1" d="M523.13,678c-1.28-2.48-2.51-5-3.71-7.48a4.9,4.9,0,0,0-.16-2.52c-.2-.6-.39-1.2-.58-1.8a4.6,4.6,0,0,0-.49-4q-.88-1.5-1.74-3l-8.19-25.49a5,5,0,0,0-2-2.69q-1.54-5.06-3.58-9.95c-1.77-9.65-3.52-19.31-7.89-28.23-.43-2.61-.84-5.23-1.2-7.85-3.76-10.28-3.83-23.82-12.08-31.23a4.37,4.37,0,0,1-.61-6.14l.11-.12c-.4-.37-.8-.75-1.22-1.1a7.79,7.79,0,0,0-3.56-5.55,11.12,11.12,0,0,0-1.05-.62H265.26a5.05,5.05,0,0,1-1.8-.31,4.55,4.55,0,0,1-2.19.31c-10.72-.8-21.15,2.68-31.94,1.84-7.74-.6-15.48-1.2-23.23-1.55-4.2.34-8.53,0-12.68.22-7.55.45-15,.6-22.58.64s-15.34,1-23,.83-15.23-.83-22.86-.88a5,5,0,0,1-2.53-.67c-15.34,2.74-31.14.8-46.86-.56a5.41,5.41,0,0,1-2.14.67c-4,.39-8.08.32-12.14.32-3.11,0-6.87-.66-9.84.35a4.71,4.71,0,0,1-2.55.2l-.09.17c-.17.4-.32.81-.46,1.21h0l-.12.37a4.78,4.78,0,0,0-1.77,2.77c-.64,2.56-1.29,5.11-1.94,7.67a62,62,0,0,0-6.23,15.09,41.87,41.87,0,0,0-1.11,5.32,66.15,66.15,0,0,0-3.83,14.7c-.63,2.45-1.22,4.92-1.79,7.39a251.94,251.94,0,0,0-20,62.57A5.28,5.28,0,0,0,11.5,660c-.25.88-.49,1.75-.73,2.63-1.08,3.77-2.09,7.56-3.06,11.36a6.16,6.16,0,0,0-3.27,3.1,6,6,0,0,0,.66,6,1.29,1.29,0,0,1-.07.51c6.07,0,12.08-.1,17.91,1.38v-.12a5,5,0,0,0,2.73-.87q23.6.32,47.2.29c21.62,4.19,43.72,2.45,65.6.86l31.69-2.29a4,4,0,0,0,4.34,2.54c4.58-.6,9.16-1.08,13.75-1.47a4.43,4.43,0,0,0,4.22,2.22q70.16-1.27,140.34-1.56a5.33,5.33,0,0,0,3.21,0h8.6a5.18,5.18,0,0,0,7.28.83,4.66,4.66,0,0,0,.83-.83q47.26-.11,94.52.22,12.74.09,25.47.23a5.73,5.73,0,0,0,4.45,0q20.86.21,41.73.49C522.77,685.55,524.82,681.25,523.13,678ZM92.69,658.92l-46.5.79a4.76,4.76,0,0,0-4.81.08H40.6a33.31,33.31,0,0,0-4.13-1.26Q44,636.25,50.89,613.77a4.34,4.34,0,0,0-1.33-4.9q3.16-9,6.34-18c1-2.52,2.09-5.07,3.15-7.64,6.18,2.2,14.48.71,20.62.63q10.86-.15,21.73-.24c2.47.74,4.95,1.42,7.44,2a51.09,51.09,0,0,0,22.58.75c4.63-1,8.88-2.34,13.27-3.21q9.34-.12,18.69-.31c13.55.82,27.08,1.94,40.65,2.44q25.8,1,51.62.67,14.4-.15,28.78-.69l3.3-.12a6.29,6.29,0,0,0,5.71,4.13h.26c1.24,2.75,2.45,5.51,3.61,8.29.08.24.17.48.26.73q.75,5.31,2,10.52a5.44,5.44,0,0,0,0,2.66c.43,1.67.85,3.34,1.28,5a4.19,4.19,0,0,0-.57,2.57,278,278,0,0,0,5.61,36.28Z" transform="translate(0 0.02)"/><path class="cls-2" d="M511.3,702.28c3.15-.63,7.85-.41,10.5-2.44,2.09-1.59,5.59-8,3.89-10.44a4.37,4.37,0,0,1-.85-3.24h0a4.68,4.68,0,0,0-4-2.16l-213.9-.06H280.62c-19.47-2.36-39-1.62-58.54,0q-64.79,0-129.57.25-29.88.18-59.74.55c-4.41.06-15-.82-23.66.68-.07,0-.13-.11-.21-.16a8,8,0,0,0-6.38-1.09,4.26,4.26,0,0,1,.21,3.64c-2,5.82.4,11.4,4.75,14.85L30.1,703l1.27-.13c7.3-1,14.73-.64,22.09-.68,8.77,0,17.51.24,26.25.51,7.66-.22,15.33-.57,23-.76,2.57-.06,5.14-.11,7.71-.1,7.49-2.3,15.07.44,22.65.79,10,.46,20,.13,30-.17,19.46-.59,38.94-.64,58.41-.73a5.86,5.86,0,0,1,1.32-.14c1.8,0,3.6.14,5.4.29a48.56,48.56,0,0,1,12.1-.53,80.51,80.51,0,0,1,13.62.44,2.16,2.16,0,0,1,.71.08c8.12-1.15,16.22-.15,24.42,0,1.39-.08,2.79-.18,4.19-.32,9.54-.9,19.58-.49,29.16-.22,10.33.29,20.64-.29,30.93.26,9.11.49,18.22-.76,27.32-.2a4.56,4.56,0,0,1,3.3-1.18c9.94.14,19.71,2.11,29.66,2.17,1.83,0,3.66,0,5.5-.06l5.47-.2,3.42-.24c3.89-.32,7.84-1.22,11.71-.25h.17c6-.13,12-.23,18.06-.26a1.29,1.29,0,0,1-.06.47c11.36.3,22.84,2.17,34.08-.18a5.07,5.07,0,0,1,2.73.14q12.63.36,25.23,1A5.76,5.76,0,0,1,511.3,702.28Zm-410-8.11L97,694.1h4.3a.17.17,0,0,1,0,.07Z" transform="translate(0 0.02)"/><path class="cls-3" d="M303.56,650.11c.46-6.9.81-13.79-.09-20.67a46.51,46.51,0,0,0-2.24-9.81c-1.1-3-3.38-6.6-2.46-9.92a4.55,4.55,0,0,0-2-5.3,103.86,103.86,0,0,0-2.1-13.12,5.76,5.76,0,0,0-.26-3.36A6.31,6.31,0,0,0,292,584c-2.47-1.94-6.31-1.38-7.9.88l-73.41-1c-12.87-.17-25.75-.32-38.63-.37-13.48,0-27-.31-40.44,1.39a6.28,6.28,0,0,0-1.14.26q-22.32-.17-44.62-1.07-8-.33-15.94-.76c-4.08-.22-9.09-1.3-12.91.63-3.61,1.82-4.27,5.15-4.91,8.82q-1.38,7.88-2.75,15.75a5.72,5.72,0,0,0,.12,2.6,5.54,5.54,0,0,0-.23.89c-.1.61-.17,1.21-.26,1.82a92.54,92.54,0,0,0-8.62,21.75c0,.22-.07.43-.1.65-.13.4-.27.81-.38,1.21a18.53,18.53,0,0,0-.3,3.79,37.73,37.73,0,0,0-2.78,8c-.89,1.56-1.76,3.1-2.54,4.61a5.06,5.06,0,0,0,4.31,7.52c2.33.18,4.23-.43,6.45-.94s4.36.17,6.57-.49A8.54,8.54,0,0,0,54,658.87c9.26,1.11,18.43.43,27.7-.65a3,3,0,0,1,.52.15,97.69,97.69,0,0,0,31,.28q40.34.09,80.69-.12l12.63-.08,5.17.44a4.46,4.46,0,0,0,1.78-.19,4.58,4.58,0,0,0,3.6,1.39l54.06-1a4.87,4.87,0,0,0,2.78-.87h2.45c4.27.13,8.54.33,12.8.64s9,1.65,13.09.22a5.11,5.11,0,0,0,1.29-9Z" transform="translate(0 0.02)"/><path class="cls-4" d="M232.68,625.51a68.77,68.77,0,0,1-11.48-.29c-2-.27-3.89-.66-5.84-.92a16.61,16.61,0,0,0-5.87,1.14,18,18,0,0,1,.51,3.5,4.42,4.42,0,0,1-.32,1.8c7.53.52,15.06-.07,22.6-.22A5.34,5.34,0,0,0,232.68,625.51Z" transform="translate(0 0.02)"/><path class="cls-4" d="M260.92,604.78a79,79,0,0,1-14-.89,40.82,40.82,0,0,0-5.85-.32c0,1.11-.06,2.23-.08,3.38a4.67,4.67,0,0,1-.17,1.18c6.7.27,13.42-.21,20.13-.34a2,2,0,0,0,.17-.32A22,22,0,0,0,260.92,604.78Z" transform="translate(0 0.02)"/><path class="cls-4" d="M191.46,646a68.68,68.68,0,0,1-11.47-.29c-2-.27-3.89-.66-5.84-.92a16.61,16.61,0,0,0-5.87,1.14,18,18,0,0,1,.51,3.5,4.42,4.42,0,0,1-.32,1.8c7.53.52,15.06-.07,22.6-.22A5.31,5.31,0,0,0,191.46,646Z" transform="translate(0 0.02)"/><path class="cls-4" d="M161.46,646a68.68,68.68,0,0,1-11.47-.29c-2-.27-3.89-.66-5.84-.92a16.61,16.61,0,0,0-5.87,1.14,18,18,0,0,1,.51,3.5,4.42,4.42,0,0,1-.32,1.8c7.53.52,15.06-.07,22.6-.22A5.31,5.31,0,0,0,161.46,646Z" transform="translate(0 0.02)"/><path class="cls-4" d="M130.64,627.09a94.18,94.18,0,0,1-15.56-.93,47.17,47.17,0,0,0-6.51-.34c0,1.16-.06,2.34-.08,3.55a4.64,4.64,0,0,1-.19,1.23c7.46.28,14.92-.22,22.4-.36.07-.1.12-.22.19-.33A24.21,24.21,0,0,0,130.64,627.09Z" transform="translate(0 0.02)"/><path class="cls-4" d="M100,626.89A94.76,94.76,0,0,1,84.39,626a47.17,47.17,0,0,0-6.51-.34c0,1.16-.07,2.34-.08,3.55a5.09,5.09,0,0,1-.19,1.23c7.46.28,14.92-.22,22.39-.36.07-.11.13-.22.19-.33A21,21,0,0,0,100,626.89Z" transform="translate(0 0.02)"/><path class="cls-4" d="M76.53,608a81,81,0,0,1-14-.89,40.82,40.82,0,0,0-5.85-.32c0,1.11-.07,2.23-.08,3.38a4.67,4.67,0,0,1-.17,1.18c6.7.26,13.41-.22,20.13-.34l.17-.33A21.82,21.82,0,0,0,76.53,608Z" transform="translate(0 0.02)"/><path class="cls-4" d="M367.46,651.89a.21.21,0,0,0-.07-.19,60.78,60.78,0,0,1-9.63-.34c-2-.27-3.89-.66-5.85-.92a16.55,16.55,0,0,0-5.86,1.14,18,18,0,0,1,.51,3.5v.42a4.27,4.27,0,0,1,2.07,1.5c5.88.24,11.75-.09,17.63-.27a5.17,5.17,0,0,1,1.13-2.34A5.86,5.86,0,0,1,367.46,651.89Z" transform="translate(0 0.02)"/><path class="cls-4" d="M366.41,627.69c0-.07-.06-.13-.08-.19a60.61,60.61,0,0,1-9.62-.34c-2-.27-3.9-.66-5.85-.92a16.83,16.83,0,0,0-5.87,1.14,18,18,0,0,1,.51,3.5,2.94,2.94,0,0,1,0,.42,4.34,4.34,0,0,1,2.08,1.5c5.87.24,11.75-.09,17.63-.27a4.93,4.93,0,0,1,1.13-2.34A5.7,5.7,0,0,1,366.41,627.69Z" transform="translate(0 0.02)"/><path class="cls-4" d="M396,650.74c0-.07-.06-.13-.08-.19a60.61,60.61,0,0,1-9.62-.34c-2-.27-3.9-.66-5.85-.92a16.83,16.83,0,0,0-5.87,1.14,18,18,0,0,1,.51,3.5,2.94,2.94,0,0,1,0,.42,4.34,4.34,0,0,1,2.08,1.5c5.87.24,11.75-.09,17.63-.27a4.93,4.93,0,0,1,1.13-2.34A5.7,5.7,0,0,1,396,650.74Z" transform="translate(0 0.02)"/><path class="cls-4" d="M339.41,652.94a.62.62,0,0,0-.07-.19,60.78,60.78,0,0,1-9.63-.34c-2-.27-3.89-.66-5.85-.92a16.55,16.55,0,0,0-5.86,1.14,18,18,0,0,1,.51,3.5v.42a4.27,4.27,0,0,1,2.07,1.5c5.88.24,11.75-.09,17.63-.27a5.17,5.17,0,0,1,1.13-2.34A5.86,5.86,0,0,1,339.41,652.94Z" transform="translate(0 0.02)"/><path class="cls-4" d="M405.18,626.35h15.05a5,5,0,0,1,.63-1,5.71,5.71,0,0,1,.1-2.5c0-.07-.06-.13-.08-.19a60.61,60.61,0,0,1-9.62-.34c-2-.27-3.9-.66-5.85-.92a20.7,20.7,0,0,0-4,.54h0a13.79,13.79,0,0,1-.28,3.57v.12a25,25,0,0,1,3.85.66Z" transform="translate(0 0.02)"/><path class="cls-4" d="M404,605.82h15a4.29,4.29,0,0,1,.62-1,5.71,5.71,0,0,1,.1-2.5c0-.07-.05-.12-.07-.19a59.61,59.61,0,0,1-9.63-.34c-2-.26-3.89-.66-5.85-.92a20,20,0,0,0-4,.55h0a14.24,14.24,0,0,1-.29,3.57v.12a25,25,0,0,1,3.85.66Z" transform="translate(0 0.02)"/><path class="cls-4" d="M432.7,604.77h15.06a4.29,4.29,0,0,1,.62-1,5.71,5.71,0,0,1,.1-2.5c0-.07-.05-.12-.07-.19a59.61,59.61,0,0,1-9.63-.34c-2-.26-3.89-.66-5.85-.92a20,20,0,0,0-4,.55h0a14.24,14.24,0,0,1-.29,3.57v.12a25,25,0,0,1,3.85.66Z" transform="translate(0 0.02)"/><path class="cls-4" d="M403.5,584.92h15.06a4.29,4.29,0,0,1,.62-1,5.71,5.71,0,0,1,.1-2.5.22.22,0,0,0-.07-.19,59.61,59.61,0,0,1-9.63-.34c-2-.26-3.89-.66-5.85-.92a20,20,0,0,0-4,.55h0a14.24,14.24,0,0,1-.29,3.57v.12a25,25,0,0,1,3.85.66Z" transform="translate(0 0.02)"/><path class="cls-4" d="M431.7,583.87h15.06a4.29,4.29,0,0,1,.62-1,5.71,5.71,0,0,1,.1-2.5c0-.07-.05-.12-.07-.19a59.61,59.61,0,0,1-9.63-.34c-2-.26-3.89-.66-5.85-.92a20,20,0,0,0-4,.55h0a14.24,14.24,0,0,1-.29,3.57v.12a25,25,0,0,1,3.85.66Z" transform="translate(0 0.02)"/><path class="cls-4" d="M460.8,582.92h15.06a4.29,4.29,0,0,1,.62-1,5.71,5.71,0,0,1,.1-2.5c0-.07-.05-.12-.07-.19a59.61,59.61,0,0,1-9.63-.34c-2-.26-3.89-.66-5.85-.92a20,20,0,0,0-4,.55h0a14.24,14.24,0,0,1-.29,3.57v.12a25,25,0,0,1,3.85.66Z" transform="translate(0 0.02)"/><path class="cls-4" d="M464.8,603.72h15.06a4.29,4.29,0,0,1,.62-1,5.71,5.71,0,0,1,.1-2.5c0-.07-.05-.12-.07-.19a59.61,59.61,0,0,1-9.63-.34c-2-.26-3.89-.66-5.85-.92a20,20,0,0,0-4,.55h0a14.24,14.24,0,0,1-.29,3.57V603a25,25,0,0,1,3.85.66Z" transform="translate(0 0.02)"/><path class="cls-4" d="M467.6,624.07h15.06a4.29,4.29,0,0,1,.62-1,5.71,5.71,0,0,1,.1-2.5c0-.07-.05-.12-.07-.19a59.61,59.61,0,0,1-9.63-.34c-2-.26-3.89-.66-5.85-.92a20,20,0,0,0-4,.55h0a14.24,14.24,0,0,1-.29,3.57v.12a25,25,0,0,1,3.85.66Z" transform="translate(0 0.02)"/><path class="cls-4" d="M433.5,625.67h15.06a4.29,4.29,0,0,1,.62-1,5.71,5.71,0,0,1,.1-2.5.22.22,0,0,0-.07-.19,59.61,59.61,0,0,1-9.63-.34c-2-.26-3.89-.66-5.85-.92a20,20,0,0,0-4,.55h0a14.24,14.24,0,0,1-.29,3.57V625a25,25,0,0,1,3.85.66Z" transform="translate(0 0.02)"/></g><g id="Layer_3" data-name="Layer 3"><path class="cls-5" d="M61.37,599.87A40.88,40.88,0,0,0,62.52,605c0,.18.21.41.37.31a.23.23,0,0,0,.11-.16,21.38,21.38,0,0,1,1.69-3.3c.09-.15.25-.32.41-.26a.35.35,0,0,1,.17.19,9.17,9.17,0,0,1,.55,1.78A1.93,1.93,0,0,0,67,604.91a.45.45,0,0,0,.28,0,.59.59,0,0,0,.27-.29,11.42,11.42,0,0,0,.81-2.92,11.79,11.79,0,0,1,.75-2.24,1.19,1.19,0,0,1,.56-.65" transform="translate(0 0.02)"/><path class="cls-5" d="M85.7,620.34c0,.23.34.26.56.2a12.47,12.47,0,0,0,2.94-1.18c.44-.24.92-.65.81-1.14s-.78-.65-1.3-.61a3.55,3.55,0,0,0-2.06.83,2.19,2.19,0,0,0-.71,2A2.54,2.54,0,0,0,87.08,622a4.14,4.14,0,0,0,4.15.18,12.5,12.5,0,0,1,1.13-.63" transform="translate(0 0.02)"/><path class="cls-5" d="M118.7,617.46a1.63,1.63,0,0,1-.12,1.38,4.89,4.89,0,0,0-.56,1.31,1,1,0,0,0,.56,1.19,1.34,1.34,0,0,0,.63,0,11,11,0,0,1,3.12-.36c.08,0,.18.07.14.14" transform="translate(0 0.02)"/><path class="cls-5" d="M150.65,636.66a6.92,6.92,0,0,0-2.13.09,2.87,2.87,0,0,0-1.75,1.15,1.82,1.82,0,0,0,0,2,2.26,2.26,0,0,0,.59.48,3.81,3.81,0,0,0,3.52.18" transform="translate(0 0.02)"/><path class="cls-5" d="M180.13,637.8a6.47,6.47,0,0,0-1.93-.55,3,3,0,0,0-1.12,2.94,2.22,2.22,0,0,0,1.31,1.67,2.85,2.85,0,0,0,2.43-.44,3.09,3.09,0,0,0,.81-2.64,1.25,1.25,0,0,0-.13-.57,1.3,1.3,0,0,0-.78-.49,3.77,3.77,0,0,0-1.53-.17,1.69,1.69,0,0,0-1.26.8" transform="translate(0 0.02)"/><path class="cls-5" d="M217.5,618v-.07s-.06.06-.06.11a16,16,0,0,0,0,3.09c.38-.69.07-1.53.14-2.31a2.42,2.42,0,0,1,1.17-1.87.55.55,0,0,1,.35-.1.62.62,0,0,1,.25.14,5.67,5.67,0,0,1,1.8,2.52c.24,0,.37-.25.46-.47a12.39,12.39,0,0,1,1.36-2.57,2.19,2.19,0,0,1,.6-.65.86.86,0,0,1,.86-.09,1.16,1.16,0,0,1,.5.74,7.3,7.3,0,0,1,.36,1.73,4.89,4.89,0,0,0,.52,2.49c.05.08.11.19.05.25s-.13-.13-.05-.08" transform="translate(0 0.02)"/><path class="cls-5" d="M247.34,598a4.24,4.24,0,0,0,3.27-.34c.3-.17.61-.43.61-.77s-.39-.64-.75-.73a2.17,2.17,0,0,0-1.84.42,2.62,2.62,0,0,0-.94,1.66,1.75,1.75,0,0,0,2,2.09,5.48,5.48,0,0,0,2.22-.72" transform="translate(0 0.02)"/><path class="cls-5" d="M353.81,620.47c-.15-.09-.32-.21-.33-.38a.48.48,0,0,1,.18-.33c.37-.41.75-.8,1.15-1.18a.28.28,0,0,1,.47,0,3.35,3.35,0,0,1,.53.65,10.53,10.53,0,0,0,1.08,1.41" transform="translate(0 0.02)"/><path class="cls-5" d="M355,619a1.83,1.83,0,0,0-.06,1.45,35.63,35.63,0,0,1,.69,4.36" transform="translate(0 0.02)"/><path class="cls-5" d="M357.32,646.62c.16.08.33.2.33.37a.51.51,0,0,1-.17.34c-.37.4-.76.8-1.15,1.17a.5.5,0,0,1-.19.13.35.35,0,0,1-.29-.12,3.3,3.3,0,0,1-.52-.65,10.53,10.53,0,0,0-1.08-1.41" transform="translate(0 0.02)"/><path class="cls-5" d="M356.12,648.11a1.83,1.83,0,0,0,.06-1.45,33.78,33.78,0,0,1-.68-4.36" transform="translate(0 0.02)"/><path class="cls-5" d="M386.18,643c.08-.16.2-.33.37-.33a.51.51,0,0,1,.34.17c.4.37.8.76,1.18,1.15a.62.62,0,0,1,.12.19.39.39,0,0,1-.11.29,3.69,3.69,0,0,1-.66.52,10.53,10.53,0,0,0-1.41,1.08" transform="translate(0 0.02)"/><path class="cls-5" d="M387.67,644.22a1.83,1.83,0,0,0-1.45-.06,33.78,33.78,0,0,1-4.36.68" transform="translate(0 0.02)"/><path class="cls-5" d="M327.1,647.47c-.09.15-.2.32-.38.33a.54.54,0,0,1-.33-.18c-.41-.37-.8-.75-1.18-1.15a.29.29,0,0,1-.07-.4l.07-.07a2.61,2.61,0,0,1,.66-.53,10.53,10.53,0,0,0,1.41-1.08" transform="translate(0 0.02)"/><path class="cls-5" d="M325.6,646.27a1.92,1.92,0,0,0,1.45.06,35.63,35.63,0,0,1,4.36-.69" transform="translate(0 0.02)"/><path class="cls-5" d="M438.52,614.88a.43.43,0,0,1,.08-.56.93.93,0,0,1,.58-.2c.39,0,.87.07,1,.44a.88.88,0,0,1-.05.62,2.66,2.66,0,0,1-.76,1.06c-.4.34-.92.59-1.11,1.07a.17.17,0,0,0,0,.14.17.17,0,0,0,.16.06h2.33" transform="translate(0 0.02)"/><path class="cls-5" d="M411,618.49c.06-1.11.07-2.23.05-3.35a.14.14,0,0,0-.15.13h0" transform="translate(0 0.02)"/><path class="cls-5" d="M472.71,613.35a2.85,2.85,0,0,1,1.79-.33.3.3,0,0,1,.29.22c0,.12-.09.26-.21.35l-1,.8c-.09.07-.18.17-.14.28a.23.23,0,0,0,.16.11c.32.13.66.22,1,.36a1.6,1.6,0,0,1,.77.66.2.2,0,0,1,0,.15.31.31,0,0,1-.13.17,4.73,4.73,0,0,1-3,.5" transform="translate(0 0.02)"/><path class="cls-5" d="M410.56,598.39l.08-4.95a6.14,6.14,0,0,0-1.89,2.73c0,.07-.06.16,0,.22a.2.2,0,0,0,.14.06,4.14,4.14,0,0,0,1.44-.19l1.7-.44" transform="translate(0 0.02)"/><path class="cls-5" d="M440.48,592.94a22.83,22.83,0,0,0-2.34,0,4.1,4.1,0,0,0-.29,1.51.31.31,0,0,0,0,.19.31.31,0,0,0,.23,0,4.38,4.38,0,0,1,1.57-.16,1.43,1.43,0,0,1,1.1,1.49.48.48,0,0,1-.11.3.5.5,0,0,1-.27.16,3.51,3.51,0,0,1-2.73-.23" transform="translate(0 0.02)"/><path class="cls-5" d="M471.85,591.13a3.69,3.69,0,0,0-2,2.56,1.83,1.83,0,0,0,.43,1.09,1.62,1.62,0,0,0,1.4.81,1.3,1.3,0,0,0,.85-.63,1,1,0,0,0,.07-1.1,1.07,1.07,0,0,0-.53-.36,2.34,2.34,0,0,0-1.95.17,2.52,2.52,0,0,0-.72.66" transform="translate(0 0.02)"/><path class="cls-5" d="M407,573.17a.56.56,0,0,0,.61,0,10.48,10.48,0,0,1,2.28-.46.63.63,0,0,1,.53.13.62.62,0,0,1,0,.59,20.42,20.42,0,0,1-.78,2.15,5.77,5.77,0,0,0-.59,1.66" transform="translate(0 0.02)"/><path class="cls-5" d="M436.71,571.54a1.13,1.13,0,0,1,1.23.14.71.71,0,0,1,.28.5.91.91,0,0,1-.38.71c-.41.34-.92.53-1.36.83a1.27,1.27,0,0,0-.71,1.65,1.13,1.13,0,0,0,.21.35,1.92,1.92,0,0,0,.54.56,1.76,1.76,0,0,0,1.21.22c.6-.09,1.71-.39,1.35-1.14a3,3,0,0,0-1.35-1.09,3.08,3.08,0,0,1-1.36-1,1.21,1.21,0,0,1,.26-1.68Z" transform="translate(0 0.02)"/><path class="cls-5" d="M467.26,570.86c0-.4-.52-.61-.92-.63a1.84,1.84,0,0,0-1.12.28,1.1,1.1,0,0,0-.49,1,.75.75,0,0,0,.2.42,1.18,1.18,0,0,0,.62.28,2.51,2.51,0,0,0,1.58-.08,1.17,1.17,0,0,0,.69-1.31l.51,4.24" transform="translate(0 0.02)"/></g><g id="Final_layout" data-name="Final layout"><path class="cls-6" d="M474.9,381.52H52.6a24.84,24.84,0,0,1-24.9-24.78v-.12c-4.1-54-6.5-112.3-6-174.5.4-51.1,2.6-99.6,6-145.1.4-5,1.9-12.2,7.3-17.6a24.78,24.78,0,0,1,17.6-7.3C114.4,6.22,181.9,2.32,254.4,2c79.7-.3,153.5,3.7,220.5,10.1a25.49,25.49,0,0,1,17.6,7.3A24.78,24.78,0,0,1,499.8,37c3.3,48.1,5.3,99.3,5.5,153.2.2,58.8-1.9,114.4-5.5,166.4C499.8,358.32,499.7,367.12,474.9,381.52Z" transform="translate(0 0.02)"/><path class="cls-7" d="M420.6,341.62c-46,3.8-95.5,6.2-148,6.4-59.8.3-115.7-2.2-167.3-6.4a25.49,25.49,0,0,1-17.6-7.3,24.78,24.78,0,0,1-7.3-17.6c-3.3-38.8-5.3-81.1-5.1-126.5.2-40.5,2.1-78.5,5.1-113.7.3-4.3,1.6-11.9,7.3-17.6a24.78,24.78,0,0,1,17.6-7.3q73.65-3.9,154.1-4.1c56.2-.1,109.9,1.4,161.1,4.1a25.49,25.49,0,0,1,17.6,7.3,24.78,24.78,0,0,1,7.3,17.6c2.6,36.9,4.1,76.2,4.2,117.7.1,43.3-1.5,84.2-4.2,122.5C445.5,318.42,445.3,327.22,420.6,341.62Z" transform="translate(0 0.02)"/><rect class="cls-8" x="67.3" y="373.54" width="390.4" height="30.2"/><path class="cls-9" d="M144.8,403.72c-4.8,12-9.6,25.3-13.9,39.7a453.34,453.34,0,0,0-12.3,51.8H408.5a414.27,414.27,0,0,0-9.6-53.7c-3.3-13.7-7.2-26.3-11.2-37.8Z" transform="translate(0 0.02)"/><rect class="cls-10" x="191.9" y="403.74" width="145.8" height="50.3"/><rect class="cls-10" x="118.5" y="495.24" width="289.9" height="13.2"/><line class="cls-11" x1="478.8" y1="541.24" x2="48.2" y2="541.34"/><path class="cls-11" d="M48.6,541c-7.7,23.7-15.4,47.5-23,71.2q-11.55,36-23,72" transform="translate(0 0.02)"/><path class="cls-11" d="M478.3,540.82q10.65,34,21.7,68.6,12.15,37.65,24.3,74.7" transform="translate(0 0.02)"/><line class="cls-11" x1="524.8" y1="684.54" x2="2.2" y2="684.54"/><path class="cls-11" d="M524.3,684.22a13.47,13.47,0,0,1,1.1,5.2,13.94,13.94,0,0,1-.8,5" transform="translate(0 0.02)"/><line class="cls-11" x1="525.2" y1="694.14" x2="2.3" y2="694.14"/><path class="cls-11" d="M2.7,684.12a11.73,11.73,0,0,0-1.2,5.2,13.57,13.57,0,0,0,.9,5" transform="translate(0 0.02)"/><line class="cls-11" x1="520.1" y1="701.44" x2="7" y2="701.44"/><path class="cls-11" d="M525.1,692.92a14.57,14.57,0,0,1-2,4.9,15.55,15.55,0,0,1-3.4,3.7" transform="translate(0 0.02)"/><path class="cls-11" d="M1.9,692.62a13.76,13.76,0,0,0,2.1,5.1,14.73,14.73,0,0,0,3.5,3.8" transform="translate(0 0.02)"/><line class="cls-11" x1="293.6" y1="583.84" x2="55.3" y2="583.94"/><line class="cls-11" x1="305.4" y1="659.74" x2="37.6" y2="659.97"/><path class="cls-11" d="M34.3,657.22c-.4,1.2,0,1.8.1,1.9.5.7,1.4.7,3,.8h1.8" transform="translate(0 0.02)"/><path class="cls-11" d="M37.6,659.92Z" transform="translate(0 0.02)"/><path class="cls-11" d="M55.6,583.52c-2.3,8.2-4.6,16.5-7,24.7-4.8,16.6-9.6,33.1-14.5,49.3" transform="translate(0 0.02)"/><path class="cls-11" d="M306.4,656.22a4.94,4.94,0,0,1,.1,2.8c-.1.1-.2.3-.4.5a1.56,1.56,0,0,1-1,.3" transform="translate(0 0.02)"/><path class="cls-11" d="M305.2,659.72c-3.4,0-6.7,0-10.1.1H282.9C290.3,659.82,297.7,659.82,305.2,659.72Z" transform="translate(0 0.02)"/><path class="cls-11" d="M293.3,583.52c2.3,13.3,4.6,26.7,7.1,40.2q3.15,17.25,6.3,34.2" transform="translate(0 0.02)"/><path class="cls-11" d="M20.9,664.72a1.88,1.88,0,0,0-.1,1.1v.5a3.57,3.57,0,0,0,.6,1.5c.8,1.2,2.5,1.3,3.6,1.4h1.3" transform="translate(0 0.02)"/><path class="cls-11" d="M49.3,570.92l-7.2,24.3Q31.6,630.47,20.7,665" transform="translate(0 0.02)"/><line class="cls-11" x1="26.2" y1="669.24" x2="39" y2="669.24"/><circle class="cls-12" cx="431.5" cy="388.64" r="3.8"/><path class="cls-11" d="M59.2,595.72h7.4" transform="translate(0 0.02)"/><path class="cls-11" d="M59.3,595.72c-.9,3.7-1.8,7.5-2.6,11.2" transform="translate(0 0.02)"/><path class="cls-11" d="M74,595.72H66.6" transform="translate(0 0.02)"/><path class="cls-11" d="M74,595.72c.9,3.7,1.8,7.5,2.6,11.2" transform="translate(0 0.02)"/><path class="cls-11" d="M56.6,606.92H76.7" transform="translate(0 0.02)"/><line class="cls-11" x1="76.6" y1="606.84" x2="77.2" y2="611.34"/><line class="cls-11" x1="56.7" y1="606.84" x2="56.1" y2="611.34"/><path class="cls-11" d="M56,611.32H77.2" transform="translate(0 0.02)"/><path class="cls-11" d="M141.4,632.52h8.7" transform="translate(0 0.02)"/><path class="cls-11" d="M141.5,632.42c-1,4.3-2,8.7-3.1,13" transform="translate(0 0.02)"/><path class="cls-11" d="M158.7,632.52H150" transform="translate(0 0.02)"/><path class="cls-11" d="M158.6,632.42c1,4.3,2,8.7,3.1,13" transform="translate(0 0.02)"/><path class="cls-11" d="M138.3,645.52h23.5" transform="translate(0 0.02)"/><line class="cls-11" x1="161.7" y1="645.44" x2="162.4" y2="650.74"/><line class="cls-11" x1="138.4" y1="645.44" x2="137.8" y2="650.74"/><path class="cls-11" d="M137.7,650.72h24.8" transform="translate(0 0.02)"/><path class="cls-11" d="M80.3,612.82H89" transform="translate(0 0.02)"/><path class="cls-11" d="M80.4,612.72c-1,4.3-2,8.7-3.1,13" transform="translate(0 0.02)"/><path class="cls-11" d="M97.6,612.82H88.9" transform="translate(0 0.02)"/><path class="cls-11" d="M97.5,612.72c1,4.3,2.1,8.7,3.1,13" transform="translate(0 0.02)"/><path class="cls-11" d="M77.3,625.82h23.5" transform="translate(0 0.02)"/><line class="cls-11" x1="100.6" y1="625.74" x2="101.3" y2="631.04"/><line class="cls-11" x1="77.3" y1="625.74" x2="76.7" y2="631.04"/><path class="cls-11" d="M76.6,631h24.8" transform="translate(0 0.02)"/><path class="cls-11" d="M111.3,612.62H120" transform="translate(0 0.02)"/><path class="cls-11" d="M111.4,612.62c-1,4.3-2,8.7-3.1,13" transform="translate(0 0.02)"/><path class="cls-11" d="M128.6,612.62h-8.7" transform="translate(0 0.02)"/><path class="cls-11" d="M128.5,612.62c1,4.3,2,8.7,3.1,13" transform="translate(0 0.02)"/><path class="cls-11" d="M108.3,625.72h23.5" transform="translate(0 0.02)"/><line class="cls-11" x1="131.6" y1="625.64" x2="132.3" y2="630.84"/><line class="cls-11" x1="108.3" y1="625.64" x2="107.7" y2="630.84"/><path class="cls-11" d="M107.6,630.82h24.8" transform="translate(0 0.02)"/><path class="cls-11" d="M212.7,611.52h8.7" transform="translate(0 0.02)"/><path class="cls-11" d="M212.8,611.42c-1,4.3-2,8.7-3.1,13" transform="translate(0 0.02)"/><path class="cls-11" d="M230,611.52h-8.7" transform="translate(0 0.02)"/><path class="cls-11" d="M230,611.42c1,4.3,2,8.7,3.1,13" transform="translate(0 0.02)"/><path class="cls-11" d="M209.7,624.52h23.5" transform="translate(0 0.02)"/><line class="cls-11" x1="233" y1="624.54" x2="233.7" y2="629.74"/><line class="cls-11" x1="209.8" y1="624.44" x2="209.1" y2="629.74"/><path class="cls-11" d="M209,629.72h24.8" transform="translate(0 0.02)"/><path class="cls-11" d="M242.6,592.62H250" transform="translate(0 0.02)"/><path class="cls-11" d="M242.6,592.52c-.9,3.7-1.8,7.5-2.6,11.2" transform="translate(0 0.02)"/><path class="cls-11" d="M257.4,592.62H250" transform="translate(0 0.02)"/><path class="cls-11" d="M257.3,592.52c.9,3.7,1.8,7.5,2.6,11.2" transform="translate(0 0.02)"/><path class="cls-11" d="M239.9,603.82H260" transform="translate(0 0.02)"/><line class="cls-11" x1="260" y1="603.74" x2="260.6" y2="608.24"/><line class="cls-11" x1="240" y1="603.74" x2="239.5" y2="608.24"/><path class="cls-11" d="M239.4,608.22h21.2" transform="translate(0 0.02)"/><path class="cls-11" d="M171.5,632.52h8.7" transform="translate(0 0.02)"/><path class="cls-11" d="M171.6,632.52c-1,4.3-2,8.7-3.1,13" transform="translate(0 0.02)"/><path class="cls-11" d="M188.8,632.52h-8.7" transform="translate(0 0.02)"/><path class="cls-11" d="M188.7,632.52c1,4.3,2,8.7,3.1,13" transform="translate(0 0.02)"/><path class="cls-11" d="M168.4,645.52h23.5" transform="translate(0 0.02)"/><line class="cls-11" x1="191.8" y1="645.54" x2="192.5" y2="650.74"/><line class="cls-11" x1="168.5" y1="645.54" x2="167.9" y2="650.74"/><path class="cls-11" d="M167.8,650.72h24.8" transform="translate(0 0.02)"/><path class="cls-11" d="M403.2,611.22c2.5-.1,5-.1,7.5-.2" transform="translate(0 0.02)"/><path class="cls-11" d="M403.3,611.12l-2.4,11.4" transform="translate(0 0.02)"/><path class="cls-11" d="M418.2,610.82c-2.5.1-5,.1-7.5.2" transform="translate(0 0.02)"/><path class="cls-11" d="M418.1,610.82c1,3.8,2,7.5,2.9,11.3" transform="translate(0 0.02)"/><path class="cls-11" d="M400.8,622.52c6.8-.2,13.6-.3,20.3-.5" transform="translate(0 0.02)"/><line class="cls-11" x1="421.1" y1="622.04" x2="421.8" y2="626.54"/><line class="cls-11" x1="400.9" y1="622.54" x2="400.4" y2="627.04"/><path class="cls-11" d="M400.3,627c7.2-.2,14.3-.3,21.5-.5" transform="translate(0 0.02)"/><path class="cls-11" d="M431.5,610.12c2.5-.1,5-.1,7.5-.2" transform="translate(0 0.02)"/><path class="cls-11" d="M431.5,610.12l-2.4,11.4" transform="translate(0 0.02)"/><path class="cls-11" d="M446.5,609.82c-2.5.1-5,.1-7.5.2" transform="translate(0 0.02)"/><path class="cls-11" d="M446.4,609.72c1,3.8,2,7.5,2.9,11.3" transform="translate(0 0.02)"/><path class="cls-11" d="M429.1,621.52c6.8-.2,13.6-.3,20.3-.5" transform="translate(0 0.02)"/><line class="cls-11" x1="449.3" y1="621.04" x2="450.1" y2="625.54"/><line class="cls-11" x1="429.1" y1="621.44" x2="428.7" y2="626.04"/><path class="cls-11" d="M428.6,626c7.2-.2,14.3-.3,21.5-.5" transform="translate(0 0.02)"/><path class="cls-11" d="M465.7,609c2.5-.1,5-.1,7.5-.2" transform="translate(0 0.02)"/><path class="cls-11" d="M465.8,608.92l-2.4,11.4" transform="translate(0 0.02)"/><path class="cls-11" d="M480.7,608.62c-2.5.1-5,.1-7.5.2" transform="translate(0 0.02)"/><path class="cls-11" d="M480.7,608.62c1,3.8,2,7.5,2.9,11.3" transform="translate(0 0.02)"/><path class="cls-11" d="M463.3,620.32c6.8-.2,13.6-.3,20.3-.5" transform="translate(0 0.02)"/><line class="cls-11" x1="483.6" y1="619.84" x2="484.3" y2="624.34"/><line class="cls-11" x1="463.4" y1="620.34" x2="462.9" y2="624.84"/><path class="cls-11" d="M462.9,624.82c7.2-.2,14.3-.3,21.5-.5" transform="translate(0 0.02)"/><path class="cls-11" d="M402.3,590.32c2.5-.1,5-.1,7.5-.2" transform="translate(0 0.02)"/><path class="cls-11" d="M402.4,590.22l-2.4,11.4" transform="translate(0 0.02)"/><path class="cls-11" d="M417.3,589.92c-2.5.1-5,.1-7.5.2" transform="translate(0 0.02)"/><path class="cls-11" d="M417.3,589.82c1,3.8,2,7.5,2.9,11.3" transform="translate(0 0.02)"/><path class="cls-11" d="M399.9,601.62c6.8-.2,13.6-.3,20.3-.5" transform="translate(0 0.02)"/><line class="cls-11" x1="420.2" y1="601.14" x2="420.9" y2="605.64"/><line class="cls-11" x1="400" y1="601.54" x2="399.6" y2="606.14"/><path class="cls-11" d="M399.5,606.12c7.2-.2,14.3-.3,21.5-.5" transform="translate(0 0.02)"/><path class="cls-11" d="M430.6,589.22c2.5-.1,5-.1,7.5-.2" transform="translate(0 0.02)"/><path class="cls-11" d="M430.7,589.12l-2.4,11.4" transform="translate(0 0.02)"/><path class="cls-11" d="M445.6,588.82c-2.5.1-5,.1-7.5.2" transform="translate(0 0.02)"/><path class="cls-11" d="M445.6,588.82c1,3.8,2,7.5,2.9,11.3" transform="translate(0 0.02)"/><path class="cls-11" d="M428.2,600.62c6.8-.2,13.6-.3,20.3-.5" transform="translate(0 0.02)"/><line class="cls-11" x1="448.5" y1="600.04" x2="449.2" y2="604.64"/><line class="cls-11" x1="428.3" y1="600.54" x2="427.8" y2="605.14"/><path class="cls-11" d="M427.8,605.12c7.2-.2,14.3-.3,21.5-.5" transform="translate(0 0.02)"/><path class="cls-11" d="M462.9,588.22c2.5-.1,5-.1,7.5-.2" transform="translate(0 0.02)"/><path class="cls-11" d="M462.9,588.12l-2.4,11.4" transform="translate(0 0.02)"/><path class="cls-11" d="M477.9,587.82c-2.5.1-5,.1-7.5.2" transform="translate(0 0.02)"/><path class="cls-11" d="M477.8,587.72c1,3.8,2,7.5,2.9,11.3" transform="translate(0 0.02)"/><path class="cls-11" d="M460.5,599.52c6.8-.2,13.6-.3,20.3-.5" transform="translate(0 0.02)"/><line class="cls-11" x1="480.8" y1="599.04" x2="481.5" y2="603.54"/><line class="cls-11" x1="460.6" y1="599.54" x2="460.1" y2="604.04"/><path class="cls-11" d="M460,604c7.2-.2,14.3-.3,21.5-.5" transform="translate(0 0.02)"/><path class="cls-11" d="M401.4,569.32c2.5-.1,5-.1,7.5-.2" transform="translate(0 0.02)"/><path class="cls-11" d="M401.5,569.32l-2.4,11.4" transform="translate(0 0.02)"/><path class="cls-11" d="M416.4,569c-2.5.1-5,.1-7.5.2" transform="translate(0 0.02)"/><path class="cls-11" d="M416.4,568.92c1,3.8,2,7.5,2.9,11.3" transform="translate(0 0.02)"/><path class="cls-11" d="M399,580.72c6.8-.2,13.6-.3,20.3-.5" transform="translate(0 0.02)"/><line class="cls-11" x1="419.3" y1="580.24" x2="420" y2="584.74"/><line class="cls-11" x1="399.1" y1="580.64" x2="398.7" y2="585.24"/><path class="cls-11" d="M398.6,585.22c7.2-.2,14.3-.3,21.5-.5" transform="translate(0 0.02)"/><path class="cls-11" d="M429.7,568.32c2.5-.1,5-.1,7.5-.2" transform="translate(0 0.02)"/><path class="cls-11" d="M429.8,568.22l-2.4,11.4" transform="translate(0 0.02)"/><path class="cls-11" d="M444.7,567.92c-2.5.1-5,.1-7.5.2" transform="translate(0 0.02)"/><path class="cls-11" d="M444.6,567.92c1,3.8,2,7.5,2.9,11.3" transform="translate(0 0.02)"/><path class="cls-11" d="M427.3,579.72c6.8-.2,13.6-.3,20.3-.5" transform="translate(0 0.02)"/><line class="cls-11" x1="447.6" y1="579.14" x2="448.3" y2="583.74"/><line class="cls-11" x1="427.4" y1="579.64" x2="426.9" y2="584.24"/><path class="cls-11" d="M426.8,584.22c7.2-.2,14.3-.3,21.5-.5" transform="translate(0 0.02)"/><path class="cls-11" d="M458.6,567.52c2.5-.1,5-.1,7.5-.2" transform="translate(0 0.02)"/><path class="cls-11" d="M458.7,567.42l-2.4,11.4" transform="translate(0 0.02)"/><path class="cls-11" d="M473.6,567.12c-2.5.1-5,.1-7.5.2" transform="translate(0 0.02)"/><path class="cls-11" d="M473.6,567c1,3.8,2,7.5,2.9,11.3" transform="translate(0 0.02)"/><path class="cls-11" d="M456.2,578.82c6.8-.2,13.6-.3,20.3-.5" transform="translate(0 0.02)"/><line class="cls-11" x1="476.5" y1="578.34" x2="477.2" y2="582.84"/><line class="cls-11" x1="456.3" y1="578.84" x2="455.8" y2="583.34"/><path class="cls-11" d="M455.8,583.32c7.2-.2,14.3-.3,21.5-.5" transform="translate(0 0.02)"/><path class="cls-11" d="M320.3,641.22c2.5-.1,5-.1,7.5-.2" transform="translate(0 0.02)"/><path class="cls-11" d="M320.4,641.22l-2.4,11.4" transform="translate(0 0.02)"/><path class="cls-11" d="M335.3,640.92c-2.5.1-5,.1-7.5.2" transform="translate(0 0.02)"/><path class="cls-11" d="M335.3,640.82c1,3.8,2,7.5,2.9,11.3" transform="translate(0 0.02)"/><path class="cls-11" d="M317.9,652.62c6.8-.2,13.6-.3,20.3-.5" transform="translate(0 0.02)"/><line class="cls-11" x1="338.2" y1="652.14" x2="338.9" y2="656.64"/><line class="cls-11" x1="318" y1="652.54" x2="317.6" y2="657.14"/><path class="cls-11" d="M317.5,657.12c7.2-.2,14.3-.3,21.5-.5" transform="translate(0 0.02)"/><path class="cls-11" d="M348.6,640.22c2.5-.1,5-.1,7.5-.2" transform="translate(0 0.02)"/><path class="cls-11" d="M348.7,640.12l-2.4,11.4" transform="translate(0 0.02)"/><path class="cls-11" d="M363.6,639.82c-2.5.1-5,.1-7.5.2" transform="translate(0 0.02)"/><path class="cls-11" d="M363.6,639.82c1,3.8,2,7.5,2.9,11.3" transform="translate(0 0.02)"/><path class="cls-11" d="M346.2,651.52c6.8-.2,13.6-.3,20.3-.5" transform="translate(0 0.02)"/><line class="cls-11" x1="366.5" y1="651.04" x2="367.2" y2="655.54"/><line class="cls-11" x1="346.3" y1="651.54" x2="345.8" y2="656.04"/><path class="cls-11" d="M345.8,656.12c7.2-.2,14.3-.3,21.5-.5" transform="translate(0 0.02)"/><path class="cls-11" d="M377.5,639.32c2.5-.1,5-.1,7.5-.2" transform="translate(0 0.02)"/><path class="cls-11" d="M377.6,639.32l-2.4,11.4" transform="translate(0 0.02)"/><path class="cls-11" d="M392.5,639c-2.5.1-5,.1-7.5.2" transform="translate(0 0.02)"/><path class="cls-11" d="M392.5,638.92c1,3.8,2,7.5,2.9,11.3" transform="translate(0 0.02)"/><path class="cls-11" d="M375.1,650.72c6.8-.2,13.6-.3,20.3-.5" transform="translate(0 0.02)"/><line class="cls-11" x1="395.4" y1="650.24" x2="396.1" y2="654.74"/><line class="cls-11" x1="375.2" y1="650.64" x2="374.8" y2="655.24"/><path class="cls-11" d="M374.7,655.22c7.2-.2,14.3-.3,21.5-.5" transform="translate(0 0.02)"/><path class="cls-11" d="M348.2,616c2.5-.1,5-.1,7.5-.2" transform="translate(0 0.02)"/><path class="cls-11" d="M348.3,615.92l-2.4,11.4" transform="translate(0 0.02)"/><path class="cls-11" d="M363.2,615.62c-2.5.1-5,.1-7.5.2" transform="translate(0 0.02)"/><path class="cls-11" d="M363.2,615.62c1,3.8,2,7.5,2.9,11.3" transform="translate(0 0.02)"/><path class="cls-11" d="M345.8,627.32c6.8-.2,13.6-.3,20.3-.5" transform="translate(0 0.02)"/><line class="cls-11" x1="366.1" y1="626.84" x2="366.8" y2="631.34"/><line class="cls-11" x1="345.9" y1="627.34" x2="345.4" y2="631.84"/><path class="cls-11" d="M345.4,631.82c7.2-.2,14.3-.3,21.5-.5" transform="translate(0 0.02)"/></g></g></g></svg>